<?xml version="1.0" standalone="no"?>
<!DOCTYPE svg PUBLIC "-//W3C//DTD SVG 20010904//EN"
 "http://www.w3.org/TR/2001/REC-SVG-20010904/DTD/svg10.dtd">
<svg version="1.0" xmlns="http://www.w3.org/2000/svg"
 width="203.000000pt" height="182.000000pt" viewBox="0 0 203.000000 182.000000"
 preserveAspectRatio="xMidYMid meet">

<g transform="translate(0.000000,182.000000) scale(0.100000,-0.100000)"
fill="#000000" stroke="none">
<path d="M1434 1666 c-41 -42 -46 -44 -76 -35 -132 38 -323 48 -463 24 -309
-54 -537 -261 -632 -572 -23 -77 -26 -106 -27 -228 -1 -163 13 -226 74 -351
74 -152 227 -287 400 -353 107 -42 228 -61 379 -61 310 1 542 111 692 330 l44
65 -1 90 c-1 106 -24 177 -84 256 -144 192 -397 226 -760 103 -74 -25 -137
-48 -139 -50 -2 -2 43 -52 100 -111 84 -87 114 -127 158 -208 29 -55 69 -119
88 -143 20 -24 33 -45 30 -48 -11 -11 -164 18 -214 41 -74 34 -166 128 -203
208 -80 171 -78 416 6 587 86 173 247 263 412 229 101 -20 167 -62 292 -185
63 -62 128 -117 143 -123 35 -13 70 0 93 35 23 35 11 95 -52 252 -121 300
-166 343 -260 248z m123 -58 c37 -64 142 -323 150 -372 5 -35 -8 -66 -29 -66
-5 0 -65 54 -133 119 -99 96 -138 127 -201 158 -76 37 -80 38 -188 38 -104 0
-115 -2 -179 -32 -126 -60 -223 -192 -263 -358 -22 -93 -23 -277 0 -369 45
-186 167 -325 331 -379 16 -5 84 -13 150 -17 73 -4 137 -14 165 -25 49 -18
142 -24 203 -11 51 10 42 -4 -32 -47 -196 -115 -483 -145 -732 -76 -238 66
-422 237 -491 459 -20 64 -23 96 -23 220 0 124 3 156 23 220 83 265 274 455
527 526 101 28 300 30 432 5 60 -12 119 -21 129 -21 11 0 38 18 59 40 21 22
46 40 55 40 9 0 30 -24 47 -52z m-62 -672 c28 -7 65 -21 84 -30 53 -28 130
-111 157 -171 28 -61 47 -166 36 -196 -7 -18 -14 -14 -71 35 -34 30 -88 72
-119 93 -41 28 -67 57 -100 111 -30 49 -50 72 -63 72 -23 0 -25 -36 -4 -64 8
-11 15 -23 15 -26 0 -4 -36 6 -80 21 -44 16 -100 30 -123 31 -37 3 -42 0 -45
-19 -3 -18 3 -23 35 -29 60 -11 192 -60 257 -95 l59 -32 -61 -17 c-107 -30
-152 -50 -152 -70 0 -28 19 -29 86 -4 34 13 95 26 135 29 l74 7 63 -57 c34
-31 62 -62 62 -69 0 -32 -42 -63 -120 -90 -69 -25 -92 -28 -158 -24 -139 8
-220 70 -312 238 -69 125 -82 144 -153 217 -34 34 -59 64 -56 66 9 9 170 58
230 72 83 17 260 19 324 1z"/>
</g>
</svg>
